<svg width="24" height="24" viewBox="0 0 24 24" fill="none" xmlns="http://www.w3.org/2000/svg">
<g clip-path="url(#clip0_2240_25931)">
<path d="M21.9973 18.23C21.9973 18.957 21.5923 20.357 20.6823 21.126C20.5003 21.266 20.3183 21.187 20.3983 20.983C20.6633 20.335 21.2693 18.836 20.9853 18.491C20.7843 18.229 19.9543 18.249 19.2463 18.309C18.9233 18.35 18.6393 18.369 18.4193 18.414C18.2153 18.43 18.1743 18.251 18.3783 18.111C18.6441 17.9236 18.9377 17.7792 19.2483 17.683C20.3983 17.339 21.7273 17.546 21.9183 17.766C21.9543 17.808 21.9973 17.927 21.9973 18.23ZM20.0753 19.523C19.8124 19.7258 19.5353 19.9096 19.2463 20.073C17.1243 21.348 14.3753 22.016 11.9883 22.016C8.14531 22.016 4.70831 20.599 2.10031 18.228C1.87631 18.046 2.06131 17.782 2.32331 17.925C5.13331 19.565 8.61131 20.557 12.2113 20.557C14.4773 20.557 16.9193 20.133 19.2463 19.221C19.4093 19.16 19.5913 19.077 19.7503 19.019C20.1173 18.854 20.4403 19.261 20.0753 19.523ZM13.9053 8.493C13.9053 7.452 13.9473 6.839 13.6023 6.313C13.2963 5.88 12.7693 5.62 12.0333 5.661C11.2353 5.705 10.3783 6.228 10.1603 7.187C10.1173 7.407 9.98931 7.623 9.72331 7.67L7.28831 7.36C7.11431 7.32 6.84931 7.187 6.93631 6.839C7.45931 4.088 9.81031 3.129 12.0343 3H12.5563C13.7763 3 15.3443 3.349 16.3473 4.264C17.5643 5.4 17.4343 6.926 17.4343 8.584V12.511C17.4343 13.689 17.9123 14.211 18.3923 14.825C18.5223 15.044 18.5673 15.302 18.3483 15.48C17.7183 16.0417 17.0792 16.5931 16.4313 17.134C16.2563 17.267 15.9423 17.281 15.8213 17.179C15.0513 16.534 14.8633 16.176 14.3863 15.521C13.5563 16.392 12.8593 16.873 12.0303 17.134C11.4474 17.2823 10.8478 17.3549 10.2463 17.35C8.15631 17.35 6.50131 16.047 6.50131 13.47C6.50131 11.421 7.59131 10.028 9.20131 9.369C10.8113 8.709 13.1513 8.499 13.9053 8.495M13.4283 13.687C13.9483 12.815 13.9053 12.101 13.9053 10.502C13.2533 10.502 12.5993 10.547 12.0343 10.68C10.9893 10.983 10.1593 11.64 10.1593 13.035C10.1593 14.125 10.7273 14.867 11.6853 14.867C11.8173 14.867 11.9333 14.852 12.0333 14.822C12.7033 14.636 13.1213 14.3 13.4283 13.687Z" fill="white" fill-opacity="0.8"/>
</g>
<defs>
<clipPath id="clip0_2240_25931">
<rect width="24" height="24" fill="white"/>
</clipPath>
</defs>
</svg>
