<svg width="18" height="14" viewBox="0 0 18 14" fill="none" xmlns="http://www.w3.org/2000/svg">
<path fill-rule="evenodd" clip-rule="evenodd" d="M8.75 0C9.49813 0 10.2655 0.0192501 11.0092 0.0507501L11.8878 0.09275L12.7286 0.142625L13.5161 0.196L14.2354 0.252C15.016 0.311405 15.7507 0.64438 16.31 1.19228C16.8692 1.74017 17.2172 2.46785 17.2926 3.24712L17.3276 3.619L17.3932 4.41525C17.4545 5.24037 17.5 6.13987 17.5 7C17.5 7.86013 17.4545 8.75963 17.3932 9.58475L17.3276 10.381L17.2926 10.7529C17.2172 11.5323 16.8691 12.2601 16.3096 12.808C15.7502 13.3559 15.0153 13.6888 14.2345 13.748L13.517 13.8031L12.7295 13.8574L11.8878 13.9072L11.0092 13.9492C10.2566 13.9819 9.50335 13.9988 8.75 14C7.99665 13.9988 7.2434 13.9819 6.49075 13.9492L5.61225 13.9072L4.77138 13.8574L3.98388 13.8031L3.26463 13.748C2.48396 13.6886 1.7493 13.3556 1.19004 12.8077C0.630777 12.2598 0.282792 11.5322 0.207375 10.7529L0.172375 10.381L0.10675 9.58475C0.0401036 8.72473 0.00449719 7.86259 0 7C0 6.13987 0.0455 5.24037 0.10675 4.41525L0.172375 3.619L0.207375 3.24712C0.282763 2.46798 0.630623 1.74042 1.18971 1.19254C1.74879 0.644664 2.48324 0.311602 3.26375 0.252L3.98213 0.196L4.76963 0.142625L5.61137 0.09275L6.48987 0.0507501C7.24282 0.0181363 7.99635 0.00121588 8.75 0ZM7 4.87812V9.12187C7 9.52612 7.4375 9.77812 7.7875 9.57687L11.4625 7.455C11.5425 7.40897 11.6089 7.34267 11.6551 7.26279C11.7013 7.18291 11.7256 7.09227 11.7256 7C11.7256 6.90773 11.7013 6.81709 11.6551 6.73721C11.6089 6.65733 11.5425 6.59103 11.4625 6.545L7.7875 4.424C7.70766 4.37791 7.6171 4.35365 7.52492 4.35366C7.43273 4.35368 7.34217 4.37797 7.26235 4.42408C7.18253 4.4702 7.11626 4.53653 7.07021 4.61638C7.02416 4.69624 6.99994 4.78681 7 4.879V4.87812Z" fill="white" fill-opacity="0.8"/>
</svg>
