<?xml version="1.0" encoding="utf-8"?>
<!-- Generator: Adobe Illustrator 27.8.0, SVG Export Plug-In . SVG Version: 6.00 Build 0)  -->
<svg version="1.1" id="Layer_1" xmlns="http://www.w3.org/2000/svg" xmlns:xlink="http://www.w3.org/1999/xlink" x="0px" y="0px"
	 viewBox="0 0 1616 1047" style="enable-background:new 0 0 1616 1047;" xml:space="preserve">
<g id="pNdu44.tif_00000040547713982866244820000013584224947714559664_">
	<g>
		<path d="M324,700.1c4.4,36.8-10.9,30.3-10,116c0.5,47.5-9.6,144.3,37,154.7c34.5,7.7,43.6,38.7,22.1,62.2
			c-22.1,24.1-96.9,7.2-111.9-40.2c-13,40.8-73.3,57.8-120.6,53.4c-78.8-7.5-122.4-47.8-135.4-126.6c-8.8-52.8-4.6-111.4-4.8-161.4
			c-0.2-54.8,15-72.3,59.6-69.9c34.9,0,38.5,5.5,41.9,39.4c7,61.1-6.2,117.4,7.6,172.4c11,44,23.2,56.2,45.2,56.2
			c45.4-0.2,58.9-58,58.9-103c0-35.6,0.7-112.1,0.7-112.1c2.7-56.8,45-64.7,67.8-64.9C290.6,676.2,321.2,676.6,324,700.1z"/>
	</g>
</g>
<path d="M332.3,787.2c14.3,46.5,55.7,61.5,82,66.7s82.3-13.5,83,11c0.7,24.5-48.2,34.1-60.6,35c-20.3,1.5-30.1-7.8-54-20.2
	c-51.8-26.9-60.6,53.4-23.7,71.6c30.3,14.9,74.2,19.6,153-5.5c57.1-22.3,70.7-61.7,68.7-93.9c-1.8-29.7-20.2-45.4-47.5-53
	c-37.7-10.6-83.5,10.9-112.1-15.5c-12.1-11.2-0.3-25.4,16.7-31.9c16.9-6.5,42.8-16.5,76.8-9.8c35.6,7,36.2-17.9,33.7-39
	c-2.8-23.1-12-29.9-27.2-31.1c-38.3-3-61.9-1.6-91.3,5.6C308.4,707,332.3,787.2,332.3,787.2z"/>
<path d="M1191.7,954.1c-23.9-3.2-33.4-18.5-34.5-44c-4.4-101.5-7.3-110.6-9.6-167.7c-1.6-67.1,6.9-74.4,39.6-82.9
	c37.1-9.7,44.1,9.1,58.8,60.6c37-41.8,104.8-105,183.5-77.5c27.6,13.1,40.3,34.3,28.9,54c-23.1,40.2-121.1,15.3-165.4,84.2
	c-10.5,16.4-28.2,47.9-27.6,96.7c0.4,34.2,26.5,78.6-63.5,77.6C1201.7,955.1,1191.8,954.1,1191.7,954.1z"/>
<path d="M1614.3,883.1c-3.2-4.2-7-3.4-10.9,0.2l-48.8,40.9c-1,0.8-2.2,1.3-3.4,1.2c-1.2-0.1-2.5-0.6-3.4-1.5
	c-2.4-2.7,0.2-5.3,2.9-7.6c6.5-5.4,23.1-21,23.1-21c12-10.7,13.7-12.1,15.9-14.7c7.6-6.9,9.3-12,6.6-14.5c-2.3-2.2-6.2-5.3-17.5,5
	c-3.6,3.3-7,6.4-12.8,11.7c-12.6,11.4-22.4,20-26.2,21.8s-5.5-0.1-6.8-1.7s1.1-4.7,3.2-7.1l22.4-18l18.7-17.6
	c3.9-3.8,4.5-9.8,1.3-14.2c0,0-5.5-6.4-14.4,2.9c-7.1,6.8-7.7,7.9-36.2,31.4c-67.1,51.4-96.4,51.4-130,32.6
	c-9.5-5.3-4.8-11,1.5-12.1c17.1-3,31.7-5.3,45.8-9.1c39.5-10.7,58.7-34.2,59.4-69.9c0.9-55.3-47.1-88.4-107-73.5
	c-68.9,17-111.6,83-102.4,158c7.3,58.6,45.6,81.3,103.3,89c57.6,7.7,126.7-24.1,156.1-49.5c29.4-25.5,58.5-50.6,58.5-50.6
	c1.8-1.7,2.7-3.9,2.8-6.1C1616.2,886.8,1615.6,884.9,1614.3,883.1z M1368.7,852.7c-3.6-4.4-9-20.8,13.8-38.9
	c5.7-4.5,15.2-12.3,21.5-15.7c22.5-12.2,59.9,25.9,17.5,44.9c-13,5.8-19.8,8.4-33.7,13.5C1379.5,859.5,1371.4,856,1368.7,852.7z"/>
<path d="M1488,524c0.5-6.5-3.8-8.8-10.2-8.6l-78.2-1.4c-1.6,0-3.1-0.6-4.2-1.6c-1.1-1.1-1.8-2.6-1.9-4.1c0-4.4,4.4-4.8,8.8-4.7
	c10.4,0.3,38.4-0.9,38.4-0.9c19.7-0.3,22.4-0.2,26.6-0.8c12.6-0.3,18.2-3.7,17.8-8.1c-0.4-3.9-1.5-9.9-20.2-9.5
	c-5.9,0.1-11.6,0.3-21.3,0.6c-20.8,0.4-36.9,0.5-41.9-0.9c-5-1.4-5-4.5-4.9-7c0.1-2.5,4.8-3.5,8.7-4l35.3,1.4l31.5-1.2
	c6.6-0.3,12-5.5,12.6-12.1c0,0,0.1-10.4-15.6-8.9c-12.1,0.6-13.5,1.2-58.8,0c-103.6-6.3-130.8-29.8-146.9-74.4
	c-4.6-12.6,4.4-14.1,11.1-10.1c18.3,11,33.7,20.6,49.9,28.4c45.2,21.9,82,15.5,111.4-17.1c45.4-50.6,27.4-119.9-40.1-154.3
	c-77.6-39.7-170.3-12.8-222.1,64.2c-40.4,60.2-23.1,112.1,24.2,165.6s136.9,79.6,184.6,79.7c47.8,0.1,95,0.1,95,0.1
	c3-0.1,5.7-1.4,7.6-3.4C1486.7,529,1487.8,526.7,1488,524z M1284.6,298.1c0.2-7,8.4-26.5,44.1-25c9,0.4,24,0.8,32.6,2.7
	c30.7,6.7,34.7,72.2-19.9,55.8c-16.7-5-25.1-8.2-42.1-14.6C1289.2,313.1,1284.4,303.4,1284.6,298.1z"/>
<path d="M748,686.4c60.6-23.8,107.9-20.9,162.1,1.4c17,7,47.7,18,58.5,46.7c10.9,28.8-8.5,47.6-34.7,48.2
	c-11.9,0.3-31.6-5.5-48.5-11.4c-62.8-22.2-110.8-5.9-146.5,40.4c-42,63.5-7,102.8,48.8,121.9c26.8,9.2,56.8,14.3,74.7,47.3
	c14.1,25.9,44.3,71.1-26.8,65.2c-144.4-12-210.7-90.4-212.2-175.9C622.6,832.5,631.5,740.6,748,686.4z"/>
<path d="M1203.4,634.5c-57,21.4-94.1-62.6-94.1-62.6s-52-111.4-96.2-164.8c-7.6-9.2-22.4-4.6-23.5,7.3
	c-3.3,36.5,8.9,101.6-27.5,114.8c-20.7,7.5-33.5,9-54.5,9.6c-28.1,0.8-51.4-21.8-51.6-49.9c-0.4-72.6,4.4-140.1,6.3-208.3
	c2.6-94.5,1.8-126.6,8.8-220.9C875.9-3.8,910-2.3,948.6,1.4c55.4,5.3,44.3,35.2,43.6,70.3c-1.9,93.7-0.9,111.6-0.7,202.4
	c0,9.4,10,15.8,18.4,11.4c74.2-38.2,72.9-143,75.1-198.4c0.8-21.4,17.1-39.1,38.3-42.2c96.8-14.4,141.2,27.5,73,124.8
	c-30.3,43.2-43.7,66.1-69.5,133.6c-52.1,136.1,75.5,197.2,159.9,255.7c17.6,12.2,13,39.3-7.5,45.4
	C1246.2,614.4,1226,624.8,1203.4,634.5z"/>
<path d="M736.2,321.7c9-18.4,26.4-32.7,44.3-38.2c38.9-12,63.7,13.3,54.4,53.7c-11.3,48.9-2.9,110.9-1.9,163.1
	c0,82,101.2,72.3,147,49.5c16.4-8.2,36.5-2.1,44.5,14.5c18.9,39.5,14.4,87.5-67.4,87.5c-117.9,0-163.7-33.8-183.2-55.5
	c-99.4,59.2-183,46.7-235.9-5.8c-43-51.6-42.8-147.2,0.4-210.3C582,316.4,660.4,299,736.2,321.7z M720,459.2
	c1-40.8-20.7-66.8-57-68.1c-40.2-1.5-65.7,31.6-66.5,86.3c-0.7,47.4,19.8,76.9,53.2,76.2C684.5,553,718.8,506.8,720,459.2z"/>
<path d="M1053.8,801.1c6.3-14.3,19.2-25.8,32.7-30.5c29.4-10.4,38.3,8.1,43.2,39.3c5.9,37.9,1.2,84.8,3.6,124.7
	c2.5,62.7,103.6,50,137.9,31.1c12.3-6.8,27.9-2.7,34.4,9.7c15.7,29.6-10.3,68.6-72.8,71.1c-90.1,3.6-126.1-20.8-141.7-36.7
	c-74.1,48.3-138.4,41.3-180.4,2.8c-34.4-38.1-37.2-111.2-6.2-160.7C935.9,801.7,995.2,786,1053.8,801.1z M1045.7,906.6
	c-0.5-31.2-17.9-50.4-45.7-50.3c-30.8,0.1-49.2,26.1-48.2,68c0.9,36.2,17.5,58.1,43,56.6C1021.4,979.3,1046.2,943,1045.7,906.6z"/>
<path d="M412.8,638.5c-12.3-2.5-28-11.4-26.8-25.7c4.5-53.1,7.9-84.4,4.5-140.5c-0.8-13.8-3.5-54.6-37.4-50.8
	c-14.8,1.6-19.2,13.2-26.4,56.7c-4.9,29.3-8.3,56.9-9.3,86.7c-2.1,65.5-47.1,71.5-74.6,71.6c-39.1,0.2-27.1-50.9-28-71
	c-1.9-40.7,13.4-148.4-57.1-146.5c-70.5,1.9-50.8,94.8-54.1,143.3c-0.6,9.5,11.4,72.3-25.6,72.3c-51.6,2-83.2,7.4-77.9-94.1
	c2.6-49.3,5.6-102.3,23.8-147.6c40.2-100.1,114.5-128.9,210.5-76.8c31.1,16.9,41.3,19.3,77.1,0.6c78.9-41.3,223.5-28.4,173.9,113.1
	c-21.6,61.7-0.2,137.4,23.1,180.1C531.2,658.1,440.5,643.1,412.8,638.5z"/>
</svg>
